<?xml version="1.0" encoding="utf-8"?>
<!-- Generator: Adobe Illustrator 27.1.0, SVG Export Plug-In . SVG Version: 6.00 Build 0)  -->
<svg version="1.1" id="Camada_1" xmlns="http://www.w3.org/2000/svg" xmlns:xlink="http://www.w3.org/1999/xlink" x="0px" y="0px"
	 viewBox="0 0 611 177" style="enable-background:new 0 0 611 177;" xml:space="preserve">
<style type="text/css">
	.st0{fill:#FFFFFF;}
	.st1{opacity:0.59;}
</style>
<g>
	<path class="st0" d="M68.5,144.4c-9,0-17.9-1.8-26.1-6.4C19.6,125.1,9.1,93.6,11,44.3c0-0.9,0.1-2,0.1-3.2
		c0.6-19.3,1.9-37,10.6-40.7c7-3,12.2,4.9,17.7,13.3c2.3,3.6,6.7,10.1,8.8,11c12.8-4.7,33.3-3.8,42.4,0c1.9-1.1,5.3-6.6,7.4-10
		c5.1-8.2,10.3-16.6,17.8-14.5c6.9,2,11.2,11,13.6,28.5c1.6,11.5,1.7,22.4,1.7,22.8c0,2.5-2,4.5-4.5,4.5c0,0,0,0,0,0
		c-2.5,0-4.5-2-4.5-4.5c0-0.1-0.1-10.8-1.6-21.8c-2.3-17-6-20.3-6.9-20.8c-2,1-5.8,7.1-7.9,10.5c-5,8-10.6,17.1-18.2,13.7
		c-6.4-2.9-25.3-4-36.3,0.1c-7.7,2.9-13.5-6-19.1-14.6c-2-3.1-5.3-8-7.1-9.5c-0.7,1-2.2,3.9-3.3,11.6c-1,7-1.2,14.9-1.4,20.7
		c0,1.2-0.1,2.3-0.1,3.3c-1.8,45.6,7.2,74.4,26.8,85.5c30.2,17,76.7-13.1,77.2-13.4c2.1-1.4,4.9-0.8,6.2,1.3
		c1.4,2.1,0.8,4.9-1.3,6.2C127.4,125.3,97.9,144.4,68.5,144.4z"/>
</g>
<circle class="st0" cx="52.8" cy="80.2" r="9.2"/>
<circle class="st0" cx="102.8" cy="80.2" r="9.2"/>
<g>
	<path class="st0" d="M69,113.2c-3,0-6.9-5.5-8.4-7.9l2.5-1.6c2.2,3.3,5,6.4,5.9,6.5c0.8,0,2.4-2.5,3.3-3.8c1.7-2.7,3.4-5.2,5.8-5.2
		c2.3,0,3.9,2.5,5.5,4.9c0.7,1.1,2.3,3.5,3,3.5c0.8-0.1,3.3-2.9,5.2-5.8l2.5,1.6c-1.4,2.2-4.9,7.2-7.8,7.2c-2.3,0-3.9-2.5-5.5-4.9
		c-0.7-1.1-2.3-3.5-3-3.5c-0.8,0-2.4,2.5-3.3,3.8C73.1,110.7,71.4,113.2,69,113.2z"/>
</g>
<path class="st0" d="M72.8,95c2.2,0,4.1,1.3,5,3.2c0.9-1.9,2.8-3.2,5-3.2c0.3,0,0.6,0,0.9,0.1c-0.9-2.4-3.2-4.1-5.9-4.1
	s-5,1.7-5.9,4.1C72.2,95,72.5,95,72.8,95z"/>
<g class="st1">
	<g>
		
			<rect x="31.1" y="60.5" transform="matrix(0.1747 -0.9846 0.9846 0.1747 -65.0916 107.5624)" class="st0" width="1" height="64.2"/>
	</g>
	<g>
		<rect x="-0.3" y="102.4" transform="matrix(0.9894 -0.1454 0.1454 0.9894 -14.618 5.6893)" class="st0" width="63.9" height="1"/>
	</g>
	<g>
		
			<rect x="-3.2" y="112.4" transform="matrix(0.9077 -0.4197 0.4197 0.9077 -44.4454 23.6888)" class="st0" width="69.7" height="1"/>
	</g>
</g>
<g class="st1">
	<g>
		<rect x="92.7" y="92.1" transform="matrix(0.9833 -0.1818 0.1818 0.9833 -14.777 24.0181)" class="st0" width="61.8" height="1"/>
	</g>
	<g>
		<rect x="123.1" y="72.1" transform="matrix(0.151 -0.9885 0.9885 0.151 3.2723 209.5288)" class="st0" width="1" height="61.5"/>
	</g>
	<g>
		
			<rect x="123.1" y="79.1" transform="matrix(0.4341 -0.9009 0.9009 0.4341 -31.7161 175.2296)" class="st0" width="1" height="67.5"/>
	</g>
</g>
<g>
	<path class="st0" d="M70.7,163.9c-24.6,0-40.5-10-50-19.2c-12-11.6-16.3-24.3-16.5-24.8c-0.8-2.4,0.5-4.9,2.8-5.7
		c2.4-0.8,4.9,0.5,5.7,2.8c0.6,1.8,15.7,44.3,70.1,37c2.5-0.3,4.7,1.4,5.1,3.9s-1.4,4.7-3.9,5.1C79.4,163.6,74.9,163.9,70.7,163.9z"
		/>
</g>
<g>
	<path class="st0" d="M155.3,45.2h17.1v97.6h-17.1V45.2z"/>
	<path class="st0" d="M209.8,45.1c1.8,1.9,2.8,4.4,2.8,7.4c0,2.9-0.9,5.3-2.8,7.2c-1.8,1.9-4.2,2.9-7,2.9c-2.8,0-5.1-1-7-2.9
		c-1.8-1.9-2.8-4.3-2.8-7.2c0-3,0.9-5.4,2.8-7.4c1.8-1.9,4.2-2.9,7-2.9C205.6,42.2,207.9,43.2,209.8,45.1z M194.4,72.5h17.1v70.4
		h-17.1V72.5z"/>
	<path class="st0" d="M262.6,86.9c-5.7,0-10.3,1.9-13.9,5.8c-3.6,3.9-5.3,8.9-5.3,15c0,6.3,1.8,11.4,5.3,15.3
		c3.6,3.9,8.2,5.8,13.9,5.8c8.4,0,14.7-2.8,18.9-8.3l10.7,8.8c-3.2,4.6-7.3,8.1-12.5,10.5c-5.2,2.5-11.2,3.7-18,3.7
		c-6.9,0-13.1-1.5-18.5-4.5c-5.4-3-9.6-7.2-12.6-12.6c-3-5.4-4.5-11.6-4.5-18.6c0-7.1,1.5-13.4,4.5-18.8c3-5.4,7.2-9.6,12.6-12.6
		c5.4-3,11.6-4.5,18.6-4.5c6.4,0,12.1,1.1,17.2,3.4c5,2.2,9.1,5.4,12.3,9.5l-10.4,9.9C276.3,89.5,270.2,86.9,262.6,86.9z"/>
	<path class="st0" d="M354.4,142.8L335.4,112l-10.8,11.3v19.5h-17.1V45.2h17.1v56.5l28.9-29.2h19.7l-26,27.1l27.6,43.1H354.4z"/>
	<path class="st0" d="M440.9,68.5c-4.4-2.1-8.9-3.2-13.5-3.2c-5.7,0-10.9,1.4-15.6,4.1c-4.7,2.7-8.5,6.5-11.2,11.2
		c-2.7,4.8-4.1,10-4.1,15.7c0,5.7,1.4,10.9,4.1,15.7c2.7,4.8,6.4,8.5,11.2,11.3c4.7,2.8,9.9,4.1,15.6,4.1c4.4,0,8.8-1,13.2-2.9
		c4.4-1.9,8.4-4.6,11.8-8l10.4,11.6c-4.8,4.9-10.4,8.8-16.8,11.6c-6.4,2.8-12.9,4.3-19.5,4.3c-8.9,0-17-2.1-24.3-6.3
		c-7.4-4.2-13.2-9.9-17.4-17.2c-4.2-7.2-6.3-15.2-6.3-24c0-8.8,2.1-16.7,6.4-23.9c4.3-7.2,10.1-12.8,17.6-17
		c7.4-4.1,15.6-6.2,24.7-6.2c6.6,0,13,1.3,19.3,3.9c6.3,2.6,11.7,6.3,16.2,10.9l-10.3,12.9C449.2,73.6,445.3,70.6,440.9,68.5z"/>
	<path class="st0" d="M518,142.8v-8.5c-2.5,3.1-5.6,5.4-9.5,7c-3.9,1.6-8.3,2.4-13.3,2.4c-4.9,0-9.2-0.9-13-2.8
		c-3.7-1.9-6.6-4.5-8.6-7.8c-2-3.3-3-7.1-3-11.2c0-6.6,2.3-11.7,7-15.5c4.6-3.7,11.2-5.6,19.7-5.7h20.5v-1.8c0-4.1-1.4-7.3-4.1-9.6
		c-2.7-2.3-6.7-3.4-11.8-3.4c-6.7,0-13.6,2.2-20.9,6.6l-6.2-11.8c5.5-3.1,10.5-5.3,15.1-6.6c4.5-1.4,9.8-2,15.8-2
		c9.1,0,16.2,2.2,21.2,6.6c5,4.4,7.6,10.5,7.7,18.4l0.1,46H518z M512,127c3.5-2.3,5.5-5.2,5.9-8.6V112h-17.8c-4.6,0-7.9,0.7-10.1,2
		c-2.1,1.4-3.2,3.6-3.2,6.6c0,3,1.1,5.3,3.4,7.1c2.2,1.8,5.3,2.6,9.1,2.6C504.3,130.5,508.5,129.3,512,127z"/>
	<path class="st0" d="M595.2,138.5c-5.6,3.4-11.5,5.1-17.6,5.1c-6,0-11-1.8-14.9-5.3c-3.9-3.6-5.8-8.8-5.8-15.7V87.8h-9.9L547,75.4
		h10V56h17v19.3h20.1v12.5h-20.1v31.7c0,3.2,0.6,5.5,1.8,6.9c1.2,1.4,3.1,2,5.5,2c2.6,0,6-1,10-2.9L595.2,138.5z"/>
</g>
</svg>
